<svg width="55" height="36" viewBox="0 0 55 36" fill="none" xmlns="http://www.w3.org/2000/svg">
<path d="M0 9C0 4.02944 4.05436 0 9.05567 0H45.8443C50.8456 0 54.9 4.02944 54.9 9V27C54.9 31.9706 50.8456 36 45.8443 36H9.05567C4.05436 36 0 31.9706 0 27V9Z" fill="#FF261B"/>
<path fill-rule="evenodd" clip-rule="evenodd" d="M14.6815 26.7745H11.3152V9H18.0745C21.4429 9 24.3228 11.7525 24.3228 15.1226C24.3228 18.5556 21.4919 21.2329 18.0745 21.2329H14.6815V26.7745ZM14.6836 18.0965H18.0765C19.7362 18.0965 20.9585 16.7334 20.9585 15.1205C20.9585 13.534 19.7117 12.1588 18.0765 12.1588H14.6836V18.0965Z" fill="white"/>
<path fill-rule="evenodd" clip-rule="evenodd" d="M30.79 26.9993C27.211 26.9993 24.6909 23.875 24.6909 20.4542C24.6909 17.1329 27.3234 13.8604 30.8145 13.8604C32.4864 13.8604 33.8579 14.5795 34.8431 15.9059V14.0818H38.0235V26.7758H34.8431V24.9171C33.8579 26.2558 32.4742 26.9993 30.79 26.9993ZM31.4256 24.0477C33.4594 24.0477 35.0046 22.449 35.0046 20.44C35.0046 18.4573 33.445 16.8079 31.4256 16.8079C29.3919 16.8079 27.8712 18.4573 27.8712 20.44C27.8712 22.4368 29.394 24.0477 31.4256 24.0477Z" fill="white"/>
<path d="M43.585 9H40.3924V12.4838H43.585V9Z" fill="white"/>
<path d="M43.585 14.0825H40.3924V26.7766H43.585V14.0825Z" fill="white"/>
</svg>
